<?xml version="1.0" standalone="no"?>
<!DOCTYPE svg PUBLIC "-//W3C//DTD SVG 20010904//EN"
 "http://www.w3.org/TR/2001/REC-SVG-20010904/DTD/svg10.dtd">
<svg version="1.0" xmlns="http://www.w3.org/2000/svg"
 width="16.000000pt" height="16.000000pt" viewBox="0 0 16.000000 16.000000"
 preserveAspectRatio="xMidYMid meet">
<metadata>
Created by potrace 1.11, written by Peter Selinger 2001-2013
</metadata>
<g transform="translate(0.000000,16.000000) scale(0.004000,-0.004000)"
fill="#000000" stroke="none">
<path d="M0 2000 l0 -2000 2000 0 2000 0 0 2000 0 2000 -2000 0 -2000 0 0
-2000z m1010 688 c133 -57 203 -226 171 -413 -31 -177 -146 -274 -312 -263
-170 13 -270 141 -270 348 0 99 20 176 62 236 33 48 108 101 153 109 17 2 42
6 56 8 38 6 90 -3 140 -25z m653 -15 c0 -13 -1 -43 -2 -68 l-1 -45 -145 0
-145 0 2 -75 2 -75 163 0 163 0 0 145 0 145 220 0 220 0 0 -70 0 -70 -145 0
-145 0 0 -75 0 -75 130 0 130 0 0 -65 0 -65 -130 0 -130 0 0 -130 0 -130 -75
0 -75 0 0 130 0 130 -162 -2 -163 -3 -1 -125 -1 -125 -71 -3 -72 -3 0 341 0
340 217 -2 217 -3 -1 -22z m865 -40 c11 -32 63 -177 116 -323 53 -146 96 -268
96 -272 0 -5 -29 -8 -64 -8 l-65 0 -17 55 -18 55 -126 0 -126 0 -19 -55 -18
-55 -64 0 c-34 0 -63 2 -63 5 0 2 45 129 101 282 56 153 108 299 117 326 l15
47 58 0 57 0 20 -57z m622 -3 l0 -60 -95 0 -95 0 0 -270 0 -270 -65 0 -65 0 0
270 0 270 -95 0 -95 0 0 60 0 60 255 0 255 0 0 -60z m-1690 -706 c64 -35 115
-99 136 -172 23 -78 16 -250 -13 -313 -97 -214 -393 -225 -499 -18 -36 72 -51
183 -36 270 24 139 90 220 212 260 49 16 144 3 200 -27z m-427 12 c-2 -3 -3
-28 -3 -56 l0 -50 -129 0 c-71 0 -136 -3 -145 -6 -21 -8 -23 -146 -3 -163 9
-6 58 -10 135 -8 l122 2 0 -57 0 -57 -132 -3 -133 -3 0 -124 0 -123 -63 -2
-62 -1 0 327 0 328 178 2 c208 4 238 3 235 -6z m1006 -20 c25 -11 59 -38 75
-59 41 -51 49 -152 17 -214 -22 -43 -74 -93 -97 -93 -8 0 -14 -4 -14 -8 0 -5
29 -62 65 -128 36 -65 65 -121 65 -125 0 -8 -129 -3 -137 5 -5 4 -35 58 -68
119 l-60 112 -48 3 -47 3 0 -120 0 -119 -65 -4 -65 -3 0 327 0 327 133 3 c166
4 192 1 246 -26z m274 25 c4 -1 7 -109 7 -241 l0 -240 28 -31 c37 -42 110 -51
159 -20 46 29 53 67 53 314 l0 217 63 0 62 0 -2 -242 c-1 -133 -4 -256 -7
-273 -3 -17 -20 -47 -37 -68 -114 -138 -394 -101 -438 58 -6 24 -11 136 -11
282 l0 242 28 3 c24 3 72 2 95 -1z m668 -201 c51 -115 96 -210 99 -210 3 0 46
91 96 203 l90 202 69 3 70 3 -2 -313 c-1 -172 -2 -320 -2 -328 -1 -12 -13 -14
-61 -12 l-60 4 -2 195 -3 196 -92 -199 c-51 -110 -97 -199 -103 -199 -7 0 -53
90 -103 199 l-92 200 -3 -197 -2 -197 -38 -1 c-20 0 -47 -2 -59 -3 l-23 -3 0
328 0 328 63 4 c34 2 63 4 63 5 1 1 44 -92 95 -208z"/>
<path d="M785 2666 c-62 -29 -107 -76 -137 -141 -20 -43 -23 -66 -23 -165 0
-130 18 -186 78 -248 124 -130 344 -98 422 62 54 110 54 270 0 376 -62 123
-215 175 -340 116z m195 -96 c16 -11 39 -41 52 -68 33 -67 33 -215 -1 -284
-27 -57 -72 -87 -132 -89 -78 -3 -135 42 -158 126 -14 50 -14 168 -1 217 13
46 54 96 95 114 39 18 108 10 145 -16z"/>
<path d="M843 2565 c-17 -7 -44 -33 -60 -56 -26 -40 -28 -50 -28 -143 0 -80 4
-109 19 -140 25 -49 69 -76 125 -76 38 0 49 5 82 39 24 26 39 53 43 78 27 162
-3 264 -87 298 -45 18 -53 18 -94 0z"/>
<path d="M1250 2360 l0 -321 50 2 50 3 0 128 0 128 185 0 184 0 3 -127 3 -128
50 0 50 0 0 128 0 127 133 0 132 0 0 45 0 45 -130 0 -130 0 0 98 0 97 122 -3
c162 -4 165 -3 166 53 l0 45 -199 0 -199 0 0 -145 0 -145 -185 0 -185 0 0 95
0 95 28 1 c15 0 80 0 145 -1 l117 -1 0 50 0 51 -195 0 -195 0 0 -320z"/>
<path d="M2403 2369 l-41 -119 84 0 c46 0 84 4 84 8 0 15 -70 216 -78 223 -4
5 -26 -46 -49 -112z"/>
<path d="M1260 1818 c-56 -37 -82 -101 -82 -203 0 -69 4 -94 24 -133 58 -118
195 -122 253 -7 29 58 29 223 -1 279 -42 80 -128 109 -194 64z"/>
<path d="M1790 1734 l0 -96 91 4 c85 3 92 5 115 31 16 19 24 40 24 65 -1 70
-39 92 -156 92 l-74 0 0 -96z"/>
</g>
</svg>
