<?xml version="1.0" encoding="utf-8"?>
<!-- Generator: Adobe Illustrator 19.0.0, SVG Export Plug-In . SVG Version: 6.00 Build 0)  -->
<svg version="1.1" id="Layer_1" xmlns="http://www.w3.org/2000/svg" xmlns:xlink="http://www.w3.org/1999/xlink" x="0px" y="0px"
	 viewBox="0 0 280.6 144.2" style="enable-background:new 0 0 280.6 144.2;" xml:space="preserve">
<style type="text/css">
	.st0{fill:#FFFFFF;}
</style>
<g>
	<path class="st0" d="M29.5,70.5c-3.9,0-7.6-0.7-11-2c-3.4-1.4-6.6-3.4-9.4-6.2C6.4,59.6,4.1,55.8,2.4,51C0.8,46.4,0,40.9,0,34.7
		c0-5.5,0.8-10.6,2.5-15.1c1.6-4.5,3.9-8.2,6.7-11c2.8-2.8,6-5,9.4-6.4C22,0.7,25.7,0,29.5,0c3.8,0,7.5,0.7,10.9,2.2
		c3.5,1.5,6.6,3.6,9.4,6.4c2.8,2.8,5.1,6.5,6.7,11c1.6,4.5,2.5,9.5,2.5,15.1c0,6.2-0.8,11.6-2.4,16.3c-1.6,4.7-3.9,8.5-6.7,11.3
		c-2.8,2.7-6,4.8-9.4,6.2h0C37.1,69.8,33.4,70.5,29.5,70.5z M29.5,2c-3.5,0-7,0.7-10.2,2c-3.2,1.4-6.2,3.4-8.8,6
		C8,12.6,5.9,16.1,4.3,20.3C2.8,24.6,2,29.4,2,34.7c0,5.9,0.8,11.2,2.3,15.7c1.5,4.4,3.6,8,6.2,10.5c2.6,2.6,5.6,4.5,8.7,5.7
		c3.2,1.3,6.6,1.9,10.2,1.9c3.6,0,7.1-0.6,10.2-1.9h0c3.2-1.3,6.1-3.2,8.7-5.7c2.6-2.5,4.7-6.1,6.2-10.5c1.6-4.5,2.3-9.7,2.3-15.7
		c0-5.3-0.8-10.1-2.3-14.4c-1.5-4.2-3.6-7.7-6.2-10.3c-2.6-2.6-5.6-4.6-8.8-6C36.5,2.7,33.1,2,29.5,2z M29.5,58.9
		c-4.8,0-8.8-2-11.9-6c-3-3.9-4.5-10-4.5-18.2c0-7.3,1.6-13,4.6-17c3.1-4,7.1-6,11.8-6c4.6,0,8.6,2,11.7,6c3.1,3.9,4.7,9.6,4.7,17
		c0,8.3-1.5,14.5-4.5,18.3C38.3,56.9,34.3,58.9,29.5,58.9z M29.5,13.7c-4.1,0-7.4,1.7-10.2,5.2c-2.8,3.6-4.2,8.8-4.2,15.7
		c0,7.7,1.4,13.5,4.1,17l0,0c2.7,3.5,6.1,5.2,10.3,5.2c4.2,0,7.6-1.7,10.3-5.1c2.7-3.5,4.1-9.2,4.1-17.1c0-6.9-1.4-12.2-4.2-15.7
		C36.9,15.5,33.6,13.7,29.5,13.7z"/>
</g>
<g>
	<path class="st0" d="M125,69.1h-14.7V43.7H77.8v25.4H63.1V1.4h43.7v13.7h-29v15.4h32.6V1.4H154v13.7h-29v15.4h26.3v13.2H125V69.1z
		 M112.3,67.1H123V41.7h26.3v-9.2H123V13.1h29V3.4h-39.7v29.1H75.8V13.1h29V3.4H65.1v63.7h10.7V41.7h36.6V67.1z"/>
</g>
<path class="st0" d="M201.5,68.1l-3.8-10.8h-25.1l-3.8,10.8h-12.6l23.8-65.7h10.8l23.7,65.7H201.5z M185.1,21.2l-8.9,25.6h17.9
	l-8.8-25.6H185.1z"/>
<path class="st0" d="M223.5,68.1v-54h-19.2V2.4h51.2v11.7h-19.2v54H223.5z"/>
<path class="st0" d="M2,142.8V77.1h41.7v11.7h-29v17.4h26.4v11.2H14.7v25.4H2z"/>
<path class="st0" d="M83.8,142.3c-3.3,1.3-6.9,2-10.6,2c-3.8,0-7.3-0.7-10.6-2c-3.3-1.3-6.3-3.3-9.1-6c-2.7-2.7-4.9-6.3-6.5-10.9
	c-1.6-4.6-2.4-9.9-2.4-16c0-5.4,0.8-10.4,2.4-14.7c1.6-4.4,3.8-7.9,6.5-10.7c2.7-2.7,5.8-4.8,9.1-6.2c3.3-1.4,6.9-2.1,10.6-2.1
	c3.7,0,7.2,0.7,10.6,2.1c3.3,1.4,6.4,3.5,9.1,6.2c2.7,2.7,4.9,6.3,6.5,10.7c1.6,4.4,2.4,9.3,2.4,14.7c0,6.1-0.8,11.4-2.4,16
	c-1.6,4.6-3.8,8.2-6.5,10.9C90.1,139,87.1,140.9,83.8,142.3z M62.1,127c2.9,3.7,6.6,5.6,11.1,5.6c4.5,0,8.2-1.8,11.1-5.5
	c2.9-3.7,4.3-9.6,4.3-17.7c0-7.1-1.5-12.6-4.5-16.3c-3-3.8-6.6-5.6-10.9-5.6c-4.4,0-8,1.9-11,5.6c-2.9,3.8-4.4,9.2-4.4,16.3
	C57.8,117.4,59.2,123.3,62.1,127z"/>
<path class="st0" d="M106.2,142.8V77.1h26.7c6.8,0,12.2,1.9,16.4,5.7c4.2,3.8,6.2,8.9,6.2,15.3c0,4.8-1.2,8.8-3.7,12.1
	c-2.5,3.3-5.9,5.7-10.2,7l14,25.6h-13.7l-13.2-24.4h-9.8v24.4H106.2z M118.8,107.4h13c7.2,0,10.8-3.1,10.8-9.4
	c0-6.3-3.6-9.5-10.8-9.5h-13V107.4z"/>
<path class="st0" d="M159.3,121.4V77.1h12.7v43.7c0,3.6,1,6.4,3.1,8.5c2,2.1,5,3.1,9,3.1c3.9,0,6.9-1,9-3.1c2.1-2.1,3.1-4.8,3.1-8.4
	V77.1h12.7v44.3c0,7.4-2.3,13-6.8,16.9c-4.5,3.9-10.5,5.9-18,5.9c-7.5,0-13.5-2-18-5.9C161.5,134.5,159.3,128.8,159.3,121.4z"/>
<path class="st0" d="M216.1,142.8V77.1h13l19.1,42.6h0.2l19.1-42.6h13.1v65.7h-12.4v-40.4H268l-18.7,40.4h-2.1l-18.7-40.4h-0.2v40.4
	H216.1z"/>
</svg>
